<?xml version="1.0" standalone="no"?>
<!DOCTYPE svg PUBLIC "-//W3C//DTD SVG 20010904//EN"
 "http://www.w3.org/TR/2001/REC-SVG-20010904/DTD/svg10.dtd">
<svg version="1.0" xmlns="http://www.w3.org/2000/svg"
 width="64.000000pt" height="64.000000pt" viewBox="0 0 64.000000 64.000000"
 preserveAspectRatio="xMidYMid meet">

<g transform="translate(0.000000,64.000000) scale(0.100000,-0.100000)"
fill="#000000" stroke="none">
<path d="M40 440 l0 -120 40 0 40 0 0 -100 c0 -93 1 -100 20 -100 13 0 20 -7
20 -20 0 -13 7 -20 20 -20 13 0 20 -7 20 -20 0 -19 7 -20 120 -20 113 0 120 1
120 20 0 13 7 20 20 20 13 0 20 7 20 20 0 13 7 20 20 20 19 0 20 7 20 100 l0
100 40 0 40 0 0 120 0 120 -100 0 -100 0 0 -40 c0 -33 -3 -40 -20 -40 -13 0
-20 -7 -20 -20 0 -17 -7 -20 -40 -20 -33 0 -40 3 -40 20 0 13 -7 20 -20 20
-17 0 -20 7 -20 40 l0 40 -100 0 -100 0 0 -120z m80 40 c0 -33 -3 -40 -20 -40
-17 0 -20 7 -20 40 0 33 3 40 20 40 17 0 20 -7 20 -40z m80 -40 l0 -80 -60 0
c-53 0 -60 2 -60 20 0 17 7 20 40 20 l40 0 0 60 c0 53 2 60 20 60 18 0 20 -7
20 -80z m280 20 l0 -60 40 0 c33 0 40 -3 40 -20 0 -18 -7 -20 -60 -20 l-60 0
0 80 c0 73 2 80 20 80 18 0 20 -7 20 -60z m80 20 c0 -33 -3 -40 -20 -40 -17 0
-20 7 -20 40 0 33 3 40 20 40 17 0 20 -7 20 -40z m-280 -100 c0 -17 7 -20 40
-20 33 0 40 3 40 20 0 13 7 20 20 20 17 0 20 -7 20 -40 l0 -40 40 0 c33 0 40
-3 40 -20 0 -17 -7 -20 -40 -20 -33 0 -40 -3 -40 -20 0 -17 7 -20 40 -20 33 0
40 -3 40 -20 0 -17 -7 -20 -40 -20 -33 0 -40 -3 -40 -20 0 -17 7 -20 40 -20
33 0 40 -3 40 -20 0 -17 -7 -20 -40 -20 -33 0 -40 -3 -40 -20 0 -18 -7 -20
-80 -20 -73 0 -80 2 -80 20 0 17 -7 20 -40 20 -33 0 -40 3 -40 20 0 17 7 20
40 20 33 0 40 3 40 20 0 17 -7 20 -40 20 -33 0 -40 3 -40 20 0 17 7 20 40 20
33 0 40 3 40 20 0 17 -7 20 -40 20 -33 0 -40 3 -40 20 0 17 7 20 40 20 l40 0
0 40 c0 33 3 40 20 40 13 0 20 -7 20 -20z"/>
<path d="M240 220 c0 -18 7 -20 80 -20 73 0 80 2 80 20 0 18 -7 20 -80 20 -73
0 -80 -2 -80 -20z"/>
<path d="M240 140 c0 -18 7 -20 80 -20 73 0 80 2 80 20 0 18 -7 20 -80 20 -73
0 -80 -2 -80 -20z"/>
</g>
</svg>
