<?xml version="1.0" standalone="no"?>
<!DOCTYPE svg PUBLIC "-//W3C//DTD SVG 20010904//EN"
 "http://www.w3.org/TR/2001/REC-SVG-20010904/DTD/svg10.dtd">
<svg version="1.0" xmlns="http://www.w3.org/2000/svg"
 width="64.000000pt" height="64.000000pt" viewBox="0 0 64.000000 64.000000"
 preserveAspectRatio="xMidYMid meet">

<g transform="translate(0.000000,64.000000) scale(0.100000,-0.100000)"
fill="#000000" stroke="none">
<path d="M150 502 c0 -46 4 -63 20 -77 17 -15 20 -31 20 -92 0 -60 -4 -80 -20
-100 -11 -14 -20 -32 -20 -39 0 -8 -7 -14 -15 -14 -11 0 -15 -12 -15 -45 l0
-45 200 0 200 0 0 45 c0 38 -3 45 -20 45 -13 0 -20 7 -20 18 0 11 -9 27 -20
37 -29 26 -29 146 0 182 15 19 20 41 20 84 l0 59 -49 0 c-43 0 -50 -3 -54 -22
l-4 -23 -2 23 c-1 20 -6 22 -55 22 -49 0 -55 -2 -59 -22 l-4 -23 -2 23 c-1 20
-6 22 -51 22 l-50 0 0 -58z m290 -52 c0 -6 -48 -10 -125 -10 -77 0 -125 4
-125 10 0 6 48 10 125 10 77 0 125 -4 125 -10z m-30 -50 c0 -6 -38 -10 -95
-10 -57 0 -95 4 -95 10 0 6 38 10 95 10 57 0 95 -4 95 -10z m-5 -140 c4 -6
-28 -10 -90 -10 -62 0 -94 4 -90 10 3 6 44 10 90 10 46 0 87 -4 90 -10z m40
-50 c4 -6 -40 -10 -124 -10 -81 0 -131 4 -131 10 0 13 247 13 255 0z m0 -40
c4 -6 -40 -10 -124 -10 -81 0 -131 4 -131 10 0 13 247 13 255 0z"/>
</g>
</svg>
