<?xml version="1.0" standalone="no"?>
<!DOCTYPE svg PUBLIC "-//W3C//DTD SVG 20010904//EN"
 "http://www.w3.org/TR/2001/REC-SVG-20010904/DTD/svg10.dtd">
<svg version="1.0" xmlns="http://www.w3.org/2000/svg"
 width="70.000000pt" height="70.000000pt" viewBox="0 0 70.000000 70.000000"
 preserveAspectRatio="xMidYMid meet">

<g transform="translate(0.000000,70.000000) scale(0.100000,-0.100000)"
fill="#000000" stroke="none">
<path d="M270 650 c0 -13 -7 -20 -20 -20 -13 0 -20 -7 -20 -20 0 -13 -7 -20
-20 -20 -13 0 -20 -7 -20 -20 0 -17 -7 -20 -40 -20 -33 0 -40 -3 -40 -20 0
-13 -7 -20 -20 -20 -13 0 -20 -7 -20 -20 0 -13 -7 -20 -20 -20 -19 0 -20 -7
-20 -180 0 -173 1 -180 20 -180 13 0 20 -7 20 -20 0 -13 7 -20 20 -20 13 0 20
-7 20 -20 0 -19 7 -20 100 -20 93 0 100 1 100 20 0 13 7 20 20 20 13 0 20 7
20 20 0 13 7 20 20 20 13 0 20 -7 20 -20 0 -19 7 -20 100 -20 93 0 100 1 100
20 0 13 7 20 20 20 13 0 20 7 20 20 0 13 7 20 20 20 19 0 20 7 20 100 0 93 -1
100 -20 100 -13 0 -20 7 -20 20 0 13 -7 20 -20 20 -13 0 -20 7 -20 20 0 13 -7
20 -20 20 -18 0 -20 7 -20 80 0 73 -2 80 -20 80 -13 0 -20 7 -20 20 0 13 -7
20 -20 20 -13 0 -20 7 -20 20 0 19 -7 20 -100 20 -93 0 -100 -1 -100 -20z
m200 -40 c0 -13 7 -20 20 -20 18 0 20 -7 20 -60 0 -53 -2 -60 -20 -60 -13 0
-20 -7 -20 -20 0 -13 -7 -20 -20 -20 -13 0 -20 7 -20 20 0 17 -7 20 -40 20
l-40 0 0 -60 c0 -53 -2 -60 -20 -60 -13 0 -20 -7 -20 -20 0 -13 7 -20 20 -20
13 0 20 -7 20 -20 0 -13 -7 -20 -20 -20 -13 0 -20 -7 -20 -20 0 -13 7 -20 20
-20 13 0 20 -7 20 -20 0 -13 -7 -20 -20 -20 -13 0 -20 -7 -20 -20 0 -13 7 -20
20 -20 13 0 20 -7 20 -20 0 -13 -7 -20 -20 -20 -13 0 -20 -7 -20 -20 0 -13 -7
-20 -20 -20 -13 0 -20 7 -20 20 0 17 -7 20 -40 20 -33 0 -40 -3 -40 -20 0 -17
-7 -20 -40 -20 -33 0 -40 3 -40 20 0 13 -7 20 -20 20 -13 0 -20 7 -20 20 0 13
7 20 20 20 13 0 20 7 20 20 0 13 -7 20 -20 20 -13 0 -20 7 -20 20 0 13 7 20
20 20 13 0 20 7 20 20 0 13 -7 20 -20 20 -13 0 -20 7 -20 20 0 13 7 20 20 20
13 0 20 7 20 20 0 13 -7 20 -20 20 -18 0 -20 7 -20 60 0 53 2 60 20 60 13 0
20 7 20 20 0 19 7 20 100 20 93 0 100 1 100 20 0 13 7 20 20 20 13 0 20 7 20
20 0 17 -7 20 -40 20 -33 0 -40 -3 -40 -20 0 -13 -7 -20 -20 -20 -13 0 -20 7
-20 20 0 13 7 20 20 20 13 0 20 7 20 20 0 19 7 20 100 20 93 0 100 -1 100 -20z
m120 -240 c0 -13 7 -20 20 -20 18 0 20 -7 20 -60 0 -53 -2 -60 -20 -60 -13 0
-20 -7 -20 -20 0 -13 7 -20 20 -20 13 0 20 -7 20 -20 0 -13 -7 -20 -20 -20
-13 0 -20 -7 -20 -20 0 -13 -7 -20 -20 -20 -13 0 -20 7 -20 20 0 17 -7 20 -40
20 -33 0 -40 -3 -40 -20 0 -17 -7 -20 -40 -20 -33 0 -40 3 -40 20 0 13 7 20
20 20 13 0 20 7 20 20 0 13 -7 20 -20 20 -17 0 -20 7 -20 40 0 33 3 40 20 40
13 0 20 7 20 20 0 13 7 20 20 20 13 0 20 7 20 20 0 17 -7 20 -40 20 -33 0 -40
3 -40 20 0 19 7 20 100 20 93 0 100 -1 100 -20z"/>
<path d="M390 570 c0 -13 -7 -20 -20 -20 -13 0 -20 -7 -20 -20 0 -13 -7 -20
-20 -20 -13 0 -20 -7 -20 -20 0 -17 -7 -20 -40 -20 -33 0 -40 -3 -40 -20 0
-13 -7 -20 -20 -20 -13 0 -20 7 -20 20 0 17 -7 20 -40 20 l-40 0 0 -40 c0 -33
3 -40 20 -40 13 0 20 7 20 20 0 13 7 20 20 20 13 0 20 -7 20 -20 0 -18 7 -20
60 -20 l60 0 0 40 c0 33 3 40 20 40 13 0 20 7 20 20 0 18 7 20 60 20 l60 0 0
40 0 40 -40 0 c-33 0 -40 -3 -40 -20z"/>
<path d="M190 330 c0 -17 7 -20 40 -20 33 0 40 -3 40 -20 0 -17 -7 -20 -40
-20 -33 0 -40 -3 -40 -20 0 -17 7 -20 40 -20 33 0 40 -3 40 -20 0 -17 -7 -20
-40 -20 -33 0 -40 -3 -40 -20 0 -17 7 -20 40 -20 33 0 40 -3 40 -20 0 -13 7
-20 20 -20 13 0 20 7 20 20 0 13 -7 20 -20 20 -13 0 -20 7 -20 20 0 13 7 20
20 20 13 0 20 7 20 20 0 13 -7 20 -20 20 -13 0 -20 7 -20 20 0 13 7 20 20 20
13 0 20 7 20 20 0 13 -7 20 -20 20 -13 0 -20 7 -20 20 0 17 -7 20 -40 20 -33
0 -40 -3 -40 -20z"/>
<path d="M110 290 c0 -13 7 -20 20 -20 13 0 20 7 20 20 0 13 -7 20 -20 20 -13
0 -20 -7 -20 -20z"/>
<path d="M110 210 c0 -13 7 -20 20 -20 13 0 20 7 20 20 0 13 -7 20 -20 20 -13
0 -20 -7 -20 -20z"/>
<path d="M110 130 c0 -13 7 -20 20 -20 13 0 20 7 20 20 0 13 -7 20 -20 20 -13
0 -20 -7 -20 -20z"/>
<path d="M510 330 c0 -13 -7 -20 -20 -20 -13 0 -20 -7 -20 -20 0 -18 7 -20 60
-20 l60 0 0 40 0 40 -40 0 c-33 0 -40 -3 -40 -20z"/>
<path d="M470 210 c0 -17 7 -20 40 -20 33 0 40 -3 40 -20 0 -13 7 -20 20 -20
13 0 20 7 20 20 0 13 -7 20 -20 20 -13 0 -20 7 -20 20 0 17 -7 20 -40 20 -33
0 -40 -3 -40 -20z"/>
</g>
</svg>
