<?xml version="1.0" standalone="no"?>
<!DOCTYPE svg PUBLIC "-//W3C//DTD SVG 20010904//EN"
 "http://www.w3.org/TR/2001/REC-SVG-20010904/DTD/svg10.dtd">
<svg version="1.0" xmlns="http://www.w3.org/2000/svg"
 width="168.000000pt" height="168.000000pt" viewBox="0 0 168.000000 168.000000"
 preserveAspectRatio="xMidYMid meet">

<g transform="translate(0.000000,168.000000) scale(0.100000,-0.100000)"
fill="#000000" stroke="none">
<path d="M350 1365 c0 -33 -2 -35 -35 -35 l-35 0 0 -70 0 -70 -35 0 c-33 0
-35 -2 -35 -35 0 -33 2 -35 35 -35 33 0 35 -2 35 -35 l0 -35 70 0 70 0 0 -35
c0 -33 2 -35 35 -35 33 0 35 -2 35 -35 0 -33 -2 -35 -35 -35 -33 0 -35 -2 -35
-35 0 -33 -2 -35 -35 -35 l-35 0 0 -70 0 -70 35 0 35 0 0 -105 0 -105 35 0 35
0 0 -70 0 -70 -35 0 c-33 0 -35 -2 -35 -35 0 -33 2 -35 35 -35 33 0 35 2 35
35 l0 35 105 0 105 0 0 -35 c0 -33 2 -35 35 -35 33 0 35 2 35 35 0 33 -2 35
-35 35 -33 0 -35 2 -35 35 0 33 -2 35 -35 35 -33 0 -35 2 -35 35 0 33 2 35 35
35 l35 0 0 70 0 70 70 0 70 0 0 -175 0 -175 35 0 35 0 0 175 0 175 70 0 70 0
0 -70 0 -70 35 0 c33 0 35 -2 35 -35 0 -33 -2 -35 -35 -35 -33 0 -35 -2 -35
-35 l0 -35 70 0 70 0 0 -35 c0 -33 2 -35 35 -35 33 0 35 2 35 35 0 33 -2 35
-35 35 l-35 0 0 105 0 105 35 0 35 0 0 140 0 140 -35 0 c-33 0 -35 2 -35 35 0
33 -2 35 -35 35 l-35 0 0 210 0 210 -35 0 c-33 0 -35 2 -35 35 l0 35 -245 0
-245 0 0 -35 c0 -33 -2 -35 -35 -35 -33 0 -35 2 -35 35 l0 35 -70 0 -70 0 0
-35z m140 -105 l0 -70 35 0 35 0 0 70 0 70 245 0 245 0 0 -105 0 -105 -35 0
c-33 0 -35 2 -35 35 0 33 -2 35 -35 35 -33 0 -35 -2 -35 -35 l0 -35 -105 0
-105 0 0 -35 0 -35 105 0 105 0 0 -70 0 -70 35 0 35 0 0 70 0 70 35 0 35 0 0
-70 0 -70 -35 0 c-33 0 -35 -2 -35 -35 0 -33 2 -35 35 -35 l35 0 0 -70 0 -70
-70 0 -70 0 0 -35 c0 -33 -2 -35 -35 -35 -33 0 -35 2 -35 35 l0 35 -70 0 -70
0 0 105 0 105 -35 0 c-33 0 -35 2 -35 35 l0 35 -70 0 -70 0 0 105 0 105 -35 0
c-33 0 -35 -2 -35 -35 l0 -35 -70 0 -70 0 0 35 c0 33 2 35 35 35 l35 0 0 70 0
70 70 0 70 0 0 -70z m140 -490 l0 -70 -105 0 -105 0 0 70 0 70 105 0 105 0 0
-70z m560 35 c0 -33 -2 -35 -35 -35 -33 0 -35 2 -35 35 0 33 2 35 35 35 33 0
35 -2 35 -35z m0 -175 l0 -70 -35 0 -35 0 0 70 0 70 35 0 35 0 0 -70z m-560
-35 c0 -33 -2 -35 -35 -35 -33 0 -35 -2 -35 -35 0 -33 -2 -35 -35 -35 l-35 0
0 70 0 70 70 0 70 0 0 -35z"/>
<path d="M630 1155 c0 -33 2 -35 35 -35 33 0 35 2 35 35 0 33 -2 35 -35 35
-33 0 -35 -2 -35 -35z"/>
<path d="M770 805 c0 -33 2 -35 35 -35 33 0 35 2 35 35 0 33 -2 35 -35 35 -33
0 -35 -2 -35 -35z"/>
<path d="M910 805 c0 -33 2 -35 35 -35 33 0 35 2 35 35 0 33 -2 35 -35 35 -33
0 -35 -2 -35 -35z"/>
</g>
</svg>
