<?xml version="1.0" standalone="no"?>
<!DOCTYPE svg PUBLIC "-//W3C//DTD SVG 20010904//EN"
 "http://www.w3.org/TR/2001/REC-SVG-20010904/DTD/svg10.dtd">
<svg version="1.0" xmlns="http://www.w3.org/2000/svg"
 width="64.000000pt" height="64.000000pt" viewBox="0 0 64.000000 64.000000"
 preserveAspectRatio="xMidYMid meet">

<g transform="translate(0.000000,64.000000) scale(0.100000,-0.100000)"
fill="#000000" stroke="none">
<path d="M104 515 c-28 -14 -60 -36 -73 -49 -21 -22 -22 -29 -15 -105 3 -45
11 -81 15 -81 5 0 9 -9 9 -20 0 -32 52 -120 87 -147 41 -32 104 -41 122 -19
19 22 123 22 142 0 18 -22 81 -13 122 19 35 27 87 115 87 147 0 11 4 20 9 20
4 0 12 36 15 81 7 76 6 83 -15 105 -26 28 -118 74 -148 74 -32 0 -34 -18 -6
-44 29 -27 26 -58 -2 -34 -11 9 -52 13 -133 13 -81 0 -122 -4 -133 -13 -28
-24 -31 7 -2 34 51 47 2 59 -81 19z m157 -146 c6 -12 8 -36 4 -55 -5 -31 -9
-34 -43 -34 -31 0 -39 5 -50 28 -19 43 3 82 45 82 23 0 36 -6 44 -21z m198 -3
c21 -23 22 -27 10 -56 -13 -28 -18 -31 -54 -28 -37 3 -40 5 -43 35 -7 69 43
96 87 49z"/>
</g>
</svg>
