<?xml version="1.0" standalone="no"?>
<!DOCTYPE svg PUBLIC "-//W3C//DTD SVG 20010904//EN"
 "http://www.w3.org/TR/2001/REC-SVG-20010904/DTD/svg10.dtd">
<svg version="1.0" xmlns="http://www.w3.org/2000/svg"
 width="64.000000pt" height="64.000000pt" viewBox="0 0 64.000000 64.000000"
 preserveAspectRatio="xMidYMid meet">

<g transform="translate(0.000000,64.000000) scale(0.100000,-0.100000)"
fill="#000000" stroke="none">
<path d="M215 570 c-13 -5 -14 -9 -5 -9 8 0 24 4 35 9 13 5 14 9 5 9 -8 0 -24
-4 -35 -9z"/>
<path d="M185 527 c-26 -40 -36 -85 -20 -91 9 -3 18 7 25 30 14 41 46 57 96
48 51 -9 114 -60 132 -105 11 -30 18 -36 28 -28 9 7 19 7 33 -1 18 -9 21 -8
21 11 0 33 -36 102 -68 130 l-27 24 21 -25 c38 -46 38 -55 0 -22 -21 18 -49
38 -63 43 -29 11 -90 11 -118 0 -11 -5 -25 -4 -32 1 -8 6 -17 2 -28 -15z"/>
<path d="M146 384 c-7 -18 25 -84 51 -105 16 -13 17 -13 4 4 -12 15 -11 17 8
17 27 0 61 -17 61 -30 0 -6 -7 -10 -15 -10 -18 0 -19 -5 -4 -32 9 -17 8 -24
-6 -34 -9 -7 -14 -17 -10 -23 3 -6 4 -11 1 -11 -2 0 -15 20 -27 45 -29 58 -45
73 -62 56 -9 -10 -8 -11 4 -6 13 5 24 -8 48 -56 17 -34 31 -74 32 -88 0 -24 1
-24 9 -6 5 11 9 16 9 11 1 -5 7 -3 15 3 21 18 49 2 43 -25 -3 -20 -2 -22 15
-13 12 7 24 7 31 1 7 -5 25 -12 40 -16 23 -5 34 -1 57 23 36 36 39 72 8 86
-13 6 -22 17 -20 25 5 20 -7 60 -17 60 -45 0 -77 -133 -34 -142 12 -3 12 -6
-1 -23 -22 -30 -39 -6 -39 57 0 54 -15 97 -28 76 -4 -6 -13 2 -23 20 -21 41
-59 66 -91 60 -20 -4 -25 0 -30 23 -4 16 -4 38 0 49 8 24 -20 29 -29 4z m106
-246 c-7 -7 -12 -8 -12 -2 0 14 12 26 19 19 2 -3 -1 -11 -7 -17z"/>
<path d="M96 382 c-6 -10 30 -9 40 1 4 4 -2 7 -14 7 -11 0 -23 -4 -26 -8z"/>
<path d="M121 339 c-15 -26 -11 -31 11 -15 9 7 13 17 9 24 -4 7 -11 5 -20 -9z"/>
<path d="M450 335 c-14 -8 -20 -14 -13 -15 7 0 20 -16 29 -35 9 -20 19 -33 22
-30 3 2 11 0 19 -6 16 -14 17 -63 1 -89 -10 -16 -10 -24 -1 -39 13 -20 2 -35
-42 -59 -12 -7 -15 -12 -6 -12 20 0 91 77 90 98 0 14 -2 14 -9 -3 -9 -20 -9
-20 -9 0 -1 11 3 35 8 53 7 23 7 30 -1 26 -7 -5 -9 -1 -5 9 4 11 -1 22 -13 29
-11 7 -20 16 -20 21 0 4 5 5 10 2 6 -3 13 1 17 11 4 11 -2 23 -18 35 -29 22
-27 22 -59 4z"/>
<path d="M285 290 c10 -11 20 -20 23 -20 3 0 -3 9 -13 20 -10 11 -20 20 -23
20 -3 0 3 -9 13 -20z"/>
<path d="M122 268 c-13 -18 -21 -78 -9 -78 5 0 7 -7 3 -15 -3 -8 -1 -15 5 -15
6 0 7 -4 4 -10 -3 -5 -3 -10 2 -10 6 0 13 140 7 140 -1 0 -6 -6 -12 -12z"/>
<path d="M231 230 c14 -31 19 -36 19 -24 0 6 -7 19 -16 30 -14 18 -14 18 -3
-6z"/>
<path d="M140 121 c0 -6 4 -13 10 -16 6 -3 7 1 4 9 -7 18 -14 21 -14 7z"/>
<path d="M184 65 c11 -8 26 -15 33 -15 22 0 14 8 -19 19 -30 10 -31 9 -14 -4z"/>
<path d="M248 53 c7 -3 16 -2 19 1 4 3 -2 6 -13 5 -11 0 -14 -3 -6 -6z"/>
</g>
</svg>
