<?xml version="1.0" standalone="no"?>
<!DOCTYPE svg PUBLIC "-//W3C//DTD SVG 20010904//EN"
 "http://www.w3.org/TR/2001/REC-SVG-20010904/DTD/svg10.dtd">
<svg version="1.0" xmlns="http://www.w3.org/2000/svg"
 width="64.000000pt" height="64.000000pt" viewBox="0 0 64.000000 64.000000"
 preserveAspectRatio="xMidYMid meet">

<g transform="translate(0.000000,64.000000) scale(0.100000,-0.100000)"
fill="#000000" stroke="none">
<path d="M242 571 c-41 -11 -99 -56 -130 -101 -103 -151 -3 -358 182 -377 139
-14 259 83 273 222 14 136 -89 253 -230 261 -34 2 -77 -1 -95 -5z m138 -67
c-21 -6 -49 -59 -44 -82 3 -10 -2 -24 -10 -31 -9 -8 -16 -20 -16 -27 0 -8 -7
-14 -16 -14 -12 0 -15 -6 -10 -25 5 -19 0 -30 -17 -45 -52 -45 -14 -120 54
-106 16 3 29 1 29 -4 0 -6 7 -10 16 -10 11 0 14 -8 12 -27 -3 -27 -5 -28 -63
-28 -59 0 -144 30 -137 48 2 5 -7 23 -21 40 -13 18 -27 42 -31 55 -4 12 -12
22 -17 22 -5 0 -9 7 -9 15 0 8 -5 23 -11 34 -18 27 -3 91 21 91 10 0 22 5 25
10 4 6 15 8 24 5 12 -3 21 2 27 16 8 17 21 22 59 26 27 2 56 10 65 17 19 17
40 25 65 24 12 0 14 -2 5 -4z m37 -176 c7 -5 13 -4 15 3 2 7 10 9 17 5 18 -12
2 -23 -41 -31 -27 -5 -38 -4 -38 5 0 8 -9 11 -25 8 -26 -5 -37 16 -12 25 16 6
69 -3 84 -15z m138 -37 c-6 -39 -63 -137 -73 -127 -3 3 7 24 22 47 15 22 25
48 22 56 -4 9 -1 22 5 29 6 7 8 17 5 23 -6 8 14 22 22 15 2 -1 1 -21 -3 -43z"/>
</g>
</svg>
